<svg version="1.1" xmlns="http://www.w3.org/2000/svg" xmlns:xlink="http://www.w3.org/1999/xlink" width="600" height="800" viewBox="0 0 600 800"><defs/><g><rect fill="rgb(255,255,255)" stroke="none" x="0" y="0" width="600" height="800" transform="matrix(1 0 0 1 0 0)" fill-opacity="1"/><path fill="none" stroke="rgb(0,0,0)" paint-order="fill stroke markers" d=" M 297.2548026353095 86.76876149205428 L 295.5378283821482 88.58169311267322" stroke-opacity="1" stroke-linecap="round" stroke-miterlimit="10" stroke-dasharray=""/><path fill="none" stroke="rgb(0,0,0)" paint-order="fill stroke markers" d=" M 294.69543152541615 94.4252645471701 L 297.89350199559016 91.9189981888474" stroke-opacity="1" stroke-linecap="round" stroke-miterlimit="10" stroke-dasharray=""/><path fill="none" stroke="rgb(0,0,0)" paint-order="fill stroke markers" d=" M 293.4237613377654 97.82299663701386 L 303.3246577408176 100.61013802567255" stroke-opacity="1" stroke-linecap="round" stroke-miterlimit="10" stroke-dasharray=""/><path fill="none" stroke="rgb(0,0,0)" paint-order="fill stroke markers" d=" M 289.83484920204006 106.57385346564342 L 304.9144013109647 105.32459263141658" stroke-opacity="1" stroke-linecap="round" stroke-miterlimit="10" stroke-dasharray=""/><path fill="none" stroke="rgb(0,0,0)" paint-order="fill stroke markers" d=" M 287.5585026916385 109.88250118185724 L 307.0795975356827 112.68429727296176" stroke-opacity="1" stroke-linecap="round" stroke-miterlimit="10" stroke-dasharray=""/><path fill="none" stroke="rgb(0,0,0)" paint-order="fill stroke markers" d=" M 282.99110852715944 116.53554426909085 L 310.5690175254878 115.93790033395344" stroke-opacity="1" stroke-linecap="round" stroke-miterlimit="10" stroke-dasharray=""/><path fill="none" stroke="rgb(0,0,0)" paint-order="fill stroke markers" d=" M 280.8016005818813 123.44017191207739 L 312.4331051278923 123.20919191127994" stroke-opacity="1" stroke-linecap="round" stroke-miterlimit="10" stroke-dasharray=""/><path fill="none" stroke="rgb(0,0,0)" paint-order="fill stroke markers" d=" M 279.6026629810563 129.9985091549294 L 314.8541947324975 127.66637518872072" stroke-opacity="1" stroke-linecap="round" stroke-miterlimit="10" stroke-dasharray=""/><path fill="none" stroke="rgb(0,0,0)" paint-order="fill stroke markers" d=" M 278.9308515635641 136.60133446024932 L 317.32588297655565 135.98745339324535" stroke-opacity="1" stroke-linecap="round" stroke-miterlimit="10" stroke-dasharray=""/><path fill="none" stroke="rgb(0,0,0)" paint-order="fill stroke markers" d=" M 277.32235995618987 140.986611888571 L 319.0302103837813 142.6421076202483" stroke-opacity="1" stroke-linecap="round" stroke-miterlimit="10" stroke-dasharray=""/><path fill="none" stroke="rgb(0,0,0)" paint-order="fill stroke markers" d=" M 271.9606219590858 146.87284829779358 L 322.7477838423144 148.1210146271484" stroke-opacity="1" stroke-linecap="round" stroke-miterlimit="10" stroke-dasharray=""/><path fill="none" stroke="rgb(0,0,0)" paint-order="fill stroke markers" d=" M 269.05142783411463 154.64509647763637 L 324.32988243287025 152.18351579426343" stroke-opacity="1" stroke-linecap="round" stroke-miterlimit="10" stroke-dasharray=""/><path fill="none" stroke="rgb(0,0,0)" paint-order="fill stroke markers" d=" M 268.9191050187366 159.41118186498923 L 328.13561916544467 159.18426277764866" stroke-opacity="1" stroke-linecap="round" stroke-miterlimit="10" stroke-dasharray=""/><path fill="none" stroke="rgb(0,0,0)" paint-order="fill stroke markers" d=" M 267.48795520365326 165.68671173796986 L 329.5106301684357 164.42480541398203" stroke-opacity="1" stroke-linecap="round" stroke-miterlimit="10" stroke-dasharray=""/><path fill="none" stroke="rgb(0,0,0)" paint-order="fill stroke markers" d=" M 263.42389262259667 171.16503602751322 L 331.7930434868702 172.45030126591908" stroke-opacity="1" stroke-linecap="round" stroke-miterlimit="10" stroke-dasharray=""/><path fill="none" stroke="rgb(0,0,0)" paint-order="fill stroke markers" d=" M 259.3352278657701 175.95872126436976 L 332.0064691343242 178.57636687152285" stroke-opacity="1" stroke-linecap="round" stroke-miterlimit="10" stroke-dasharray=""/><path fill="none" stroke="rgb(0,0,0)" paint-order="fill stroke markers" d=" M 259.77429720711297 183.27074440667118 L 337.95952658126293 185.30774568023077" stroke-opacity="1" stroke-linecap="round" stroke-miterlimit="10" stroke-dasharray=""/><path fill="none" stroke="rgb(0,0,0)" paint-order="fill stroke markers" d=" M 255.5018366723971 187.95799211701197 L 337.1620748400855 191.28446379996163" stroke-opacity="1" stroke-linecap="round" stroke-miterlimit="10" stroke-dasharray=""/><path fill="none" stroke="rgb(0,0,0)" paint-order="fill stroke markers" d=" M 255.76861560364407 195.25863962456125 L 339.5296177985952 193.465008960758" stroke-opacity="1" stroke-linecap="round" stroke-miterlimit="10" stroke-dasharray=""/><path fill="none" stroke="rgb(0,0,0)" paint-order="fill stroke markers" d=" M 253.24469693210077 200.6727030113058 L 345.3637930925494 201.22840394367688" stroke-opacity="1" stroke-linecap="round" stroke-miterlimit="10" stroke-dasharray=""/><path fill="none" stroke="rgb(0,0,0)" paint-order="fill stroke markers" d=" M 250.0052515095738 208.13978945306152 L 346.7081722527927 207.80429159349933" stroke-opacity="1" stroke-linecap="round" stroke-miterlimit="10" stroke-dasharray=""/><path fill="none" stroke="rgb(0,0,0)" paint-order="fill stroke markers" d=" M 245.46033106040878 214.53937927012518 L 349.0039848079786 211.60909002462154" stroke-opacity="1" stroke-linecap="round" stroke-miterlimit="10" stroke-dasharray=""/><path fill="none" stroke="rgb(0,0,0)" paint-order="fill stroke markers" d=" M 242.99516117357547 220.90148637244164 L 349.2897705444848 219.61036465851112" stroke-opacity="1" stroke-linecap="round" stroke-miterlimit="10" stroke-dasharray=""/><path fill="none" stroke="rgb(0,0,0)" paint-order="fill stroke markers" d=" M 242.61416759645044 223.67220188511078 L 355.3001489428817 224.86860734179658" stroke-opacity="1" stroke-linecap="round" stroke-miterlimit="10" stroke-dasharray=""/><path fill="none" stroke="rgb(0,0,0)" paint-order="fill stroke markers" d=" M 241.283380561195 232.40652761460194 L 354.77066365467584 231.01139477049404" stroke-opacity="1" stroke-linecap="round" stroke-miterlimit="10" stroke-dasharray=""/><path fill="none" stroke="rgb(0,0,0)" paint-order="fill stroke markers" d=" M 236.67046615351754 235.80436640799846 L 359.46936483588695 237.8061848747536" stroke-opacity="1" stroke-linecap="round" stroke-miterlimit="10" stroke-dasharray=""/><path fill="none" stroke="rgb(0,0,0)" paint-order="fill stroke markers" d=" M 237.10845173052314 242.50658602522893 L 361.0756043297461 242.94262998676749" stroke-opacity="1" stroke-linecap="round" stroke-miterlimit="10" stroke-dasharray=""/><path fill="none" stroke="rgb(0,0,0)" paint-order="fill stroke markers" d=" M 234.3526510293017 248.36531963681463 L 363.0000089878205 247.93580685731666" stroke-opacity="1" stroke-linecap="round" stroke-miterlimit="10" stroke-dasharray=""/><path fill="none" stroke="rgb(0,0,0)" paint-order="fill stroke markers" d=" M 231.86062239325256 255.2359742236181 L 366.030652899323 255.37648083661375" stroke-opacity="1" stroke-linecap="round" stroke-miterlimit="10" stroke-dasharray=""/><path fill="none" stroke="rgb(0,0,0)" paint-order="fill stroke markers" d=" M 230.15330257027554 260.5641707459779 L 368.5404040565662 261.4479721670487" stroke-opacity="1" stroke-linecap="round" stroke-miterlimit="10" stroke-dasharray=""/><path fill="none" stroke="rgb(0,0,0)" paint-order="fill stroke markers" d=" M 225.55498071630078 267.99812720302805 L 371.7726678279993 267.5408413647313" stroke-opacity="1" stroke-linecap="round" stroke-miterlimit="10" stroke-dasharray=""/><path fill="none" stroke="rgb(0,0,0)" paint-order="fill stroke markers" d=" M 222.7903541095459 275.0775415711531 L 374.7612439373866 273.25638978814294" stroke-opacity="1" stroke-linecap="round" stroke-miterlimit="10" stroke-dasharray=""/><path fill="none" stroke="rgb(0,0,0)" paint-order="fill stroke markers" d=" M 221.37364926040524 279.09506996449016 L 377.37894357837155 281.11819570078967" stroke-opacity="1" stroke-linecap="round" stroke-miterlimit="10" stroke-dasharray=""/><path fill="none" stroke="rgb(0,0,0)" paint-order="fill stroke markers" d=" M 219.96583309481565 283.6095004276145 L 379.4011680069404 286.441907170357" stroke-opacity="1" stroke-linecap="round" stroke-miterlimit="10" stroke-dasharray=""/><path fill="none" stroke="rgb(0,0,0)" paint-order="fill stroke markers" d=" M 214.99364662979198 290.44024015123426 L 379.7397372724252 289.39859174011525" stroke-opacity="1" stroke-linecap="round" stroke-miterlimit="10" stroke-dasharray=""/><path fill="none" stroke="rgb(0,0,0)" paint-order="fill stroke markers" d=" M 212.7186283991673 296.7393077276876 L 385.12535464286407 296.4636202006536" stroke-opacity="1" stroke-linecap="round" stroke-miterlimit="10" stroke-dasharray=""/><path fill="none" stroke="rgb(0,0,0)" paint-order="fill stroke markers" d=" M 213.00206134824379 305.1026946343653 L 384.3690054556456 305.19901421754037" stroke-opacity="1" stroke-linecap="round" stroke-miterlimit="10" stroke-dasharray=""/><path fill="none" stroke="rgb(0,0,0)" paint-order="fill stroke markers" d=" M 210.32956755055213 307.88930303687226 L 386.78656457485636 309.14464826551387" stroke-opacity="1" stroke-linecap="round" stroke-miterlimit="10" stroke-dasharray=""/><path fill="none" stroke="rgb(0,0,0)" paint-order="fill stroke markers" d=" M 208.01126954275844 317.1650521021771 L 389.3330484549764 313.76115179696006" stroke-opacity="1" stroke-linecap="round" stroke-miterlimit="10" stroke-dasharray=""/><path fill="none" stroke="rgb(0,0,0)" paint-order="fill stroke markers" d=" M 203.3295338161133 322.2897188175791 L 395.4661653669115 321.3789438194419" stroke-opacity="1" stroke-linecap="round" stroke-miterlimit="10" stroke-dasharray=""/><path fill="none" stroke="rgb(0,0,0)" paint-order="fill stroke markers" d=" M 203.92214198091395 328.73947508345043 L 396.52998096062214 326.78520638881434" stroke-opacity="1" stroke-linecap="round" stroke-miterlimit="10" stroke-dasharray=""/><path fill="none" stroke="rgb(0,0,0)" paint-order="fill stroke markers" d=" M 200.96185240237207 332.0567630310668 L 397.37998578168623 335.1365446816308" stroke-opacity="1" stroke-linecap="round" stroke-miterlimit="10" stroke-dasharray=""/><path fill="none" stroke="rgb(0,0,0)" paint-order="fill stroke markers" d=" M 199.25329971169606 341.25435781998044 L 402.401801229952 340.42962023045527" stroke-opacity="1" stroke-linecap="round" stroke-miterlimit="10" stroke-dasharray=""/><path fill="none" stroke="rgb(0,0,0)" paint-order="fill stroke markers" d=" M 195.37467799938176 344.1137247090824 L 404.0252273716067 346.236224296438" stroke-opacity="1" stroke-linecap="round" stroke-miterlimit="10" stroke-dasharray=""/><path fill="none" stroke="rgb(0,0,0)" paint-order="fill stroke markers" d=" M 193.14972449129445 352.33175688001444 L 406.7394134236799 352.19151624795785" stroke-opacity="1" stroke-linecap="round" stroke-miterlimit="10" stroke-dasharray=""/><path fill="none" stroke="rgb(0,0,0)" paint-order="fill stroke markers" d=" M 191.41995669710758 357.8572841757228 L 406.61089662350855 357.4461060268674" stroke-opacity="1" stroke-linecap="round" stroke-miterlimit="10" stroke-dasharray=""/><path fill="none" stroke="rgb(0,0,0)" paint-order="fill stroke markers" d=" M 189.27138116770018 364.54217314326405 L 409.158296310385 363.34274901201184" stroke-opacity="1" stroke-linecap="round" stroke-miterlimit="10" stroke-dasharray=""/><path fill="none" stroke="rgb(0,0,0)" paint-order="fill stroke markers" d=" M 187.38938474763853 369.25366297672906 L 413.00567447262506 367.87642205314705" stroke-opacity="1" stroke-linecap="round" stroke-miterlimit="10" stroke-dasharray=""/><path fill="none" stroke="rgb(0,0,0)" paint-order="fill stroke markers" d=" M 182.2140160088604 374.7148600782565 L 415.91937155668694 376.8149752611256" stroke-opacity="1" stroke-linecap="round" stroke-miterlimit="10" stroke-dasharray=""/><path fill="none" stroke="rgb(0,0,0)" paint-order="fill stroke markers" d=" M 181.37690032122558 380.42191116487214 L 420.24366387115856 381.4772330523208" stroke-opacity="1" stroke-linecap="round" stroke-miterlimit="10" stroke-dasharray=""/><path fill="none" stroke="rgb(0,0,0)" paint-order="fill stroke markers" d=" M 179.21615175725307 388.69606748530543 L 419.29194602346 386.8087247135235" stroke-opacity="1" stroke-linecap="round" stroke-miterlimit="10" stroke-dasharray=""/><path fill="none" stroke="rgb(0,0,0)" paint-order="fill stroke markers" d=" M 176.51256191513332 392.63856317408636 L 421.99388902350034 395.0849922362333" stroke-opacity="1" stroke-linecap="round" stroke-miterlimit="10" stroke-dasharray=""/><path fill="none" stroke="rgb(0,0,0)" paint-order="fill stroke markers" d=" M 172.63421173519276 400.2953784507518 L 427.17500100099335 400.59744676536957" stroke-opacity="1" stroke-linecap="round" stroke-miterlimit="10" stroke-dasharray=""/><path fill="none" stroke="rgb(0,0,0)" paint-order="fill stroke markers" d=" M 170.61318994971566 406.7229791549844 L 429.7671761470734 403.9877549090506" stroke-opacity="1" stroke-linecap="round" stroke-miterlimit="10" stroke-dasharray=""/><path fill="none" stroke="rgb(0,0,0)" paint-order="fill stroke markers" d=" M 171.6327170086965 411.6065375650505 L 429.3884690994379 413.13731928413847" stroke-opacity="1" stroke-linecap="round" stroke-miterlimit="10" stroke-dasharray=""/><path fill="none" stroke="rgb(0,0,0)" paint-order="fill stroke markers" d=" M 167.67908242365732 415.7887798193198 L 433.9991474162257 418.3208203503491" stroke-opacity="1" stroke-linecap="round" stroke-miterlimit="10" stroke-dasharray=""/><path fill="none" stroke="rgb(0,0,0)" paint-order="fill stroke markers" d=" M 163.34880370459612 422.9386823852221 L 437.47115167358623 422.93126293737976" stroke-opacity="1" stroke-linecap="round" stroke-miterlimit="10" stroke-dasharray=""/><path fill="none" stroke="rgb(0,0,0)" paint-order="fill stroke markers" d=" M 162.34398343511532 428.80694004793696 L 439.6834094578293 430.619001092832" stroke-opacity="1" stroke-linecap="round" stroke-miterlimit="10" stroke-dasharray=""/><path fill="none" stroke="rgb(0,0,0)" paint-order="fill stroke markers" d=" M 161.03134433427618 436.9682687586825 L 442.536997516459 434.0224347879452" stroke-opacity="1" stroke-linecap="round" stroke-miterlimit="10" stroke-dasharray=""/><path fill="none" stroke="rgb(0,0,0)" paint-order="fill stroke markers" d=" M 159.24015434553516 440.3062048090507 L 441.6938524214202 442.61709690789854" stroke-opacity="1" stroke-linecap="round" stroke-miterlimit="10" stroke-dasharray=""/><path fill="none" stroke="rgb(0,0,0)" paint-order="fill stroke markers" d=" M 154.0986181985153 446.26069737825634 L 447.406350326449 446.8357784940638" stroke-opacity="1" stroke-linecap="round" stroke-miterlimit="10" stroke-dasharray=""/><path fill="none" stroke="rgb(0,0,0)" paint-order="fill stroke markers" d=" M 153.82503212669405 453.6027547338922 L 447.99531178491145 452.69259058365157" stroke-opacity="1" stroke-linecap="round" stroke-miterlimit="10" stroke-dasharray=""/><path fill="none" stroke="rgb(0,0,0)" paint-order="fill stroke markers" d=" M 150.6279965240305 458.7605994599592 L 451.00817032475516 460.9408117404184" stroke-opacity="1" stroke-linecap="round" stroke-miterlimit="10" stroke-dasharray=""/><path fill="none" stroke="rgb(0,0,0)" paint-order="fill stroke markers" d=" M 149.80585004933758 466.36873786235265 L 452.3433658109359 464.3197430490034" stroke-opacity="1" stroke-linecap="round" stroke-miterlimit="10" stroke-dasharray=""/><path fill="none" stroke="rgb(0,0,0)" paint-order="fill stroke markers" d=" M 147.26629862041202 473.20073393974604 L 456.7531435344921 470.3167650689637" stroke-opacity="1" stroke-linecap="round" stroke-miterlimit="10" stroke-dasharray=""/><path fill="none" stroke="rgb(0,0,0)" paint-order="fill stroke markers" d=" M 145.04886243456903 475.57858735379847 L 457.68218330450026 476.0671374844567" stroke-opacity="1" stroke-linecap="round" stroke-miterlimit="10" stroke-dasharray=""/><path fill="none" stroke="rgb(0,0,0)" paint-order="fill stroke markers" d=" M 142.92147798342648 484.0921426959613 L 459.868086986297 484.76402817742434" stroke-opacity="1" stroke-linecap="round" stroke-miterlimit="10" stroke-dasharray=""/><path fill="none" stroke="rgb(0,0,0)" paint-order="fill stroke markers" d=" M 141.0522057649073 489.9796884114391 L 461.774329606201 489.9965554309356" stroke-opacity="1" stroke-linecap="round" stroke-miterlimit="10" stroke-dasharray=""/><path fill="none" stroke="rgb(0,0,0)" paint-order="fill stroke markers" d=" M 138.19588097940988 495.60275382305866 L 463.9651482476016 495.3769655403132" stroke-opacity="1" stroke-linecap="round" stroke-miterlimit="10" stroke-dasharray=""/><path fill="none" stroke="rgb(0,0,0)" paint-order="fill stroke markers" d=" M 133.20677951493664 500.23616426834974 L 467.48395929177724 501.1446796037207" stroke-opacity="1" stroke-linecap="round" stroke-miterlimit="10" stroke-dasharray=""/><g><path fill="none" stroke="rgb(0,0,0)" paint-order="fill stroke markers" d=" M 267.3994908503349 517.7287571770086 L 332.45596971069904 515.3065803682533 L 335.3093714543526 591.9451930183039 L 270.25289259398846 594.3673698270592 L 267.3994908503349 517.7287571770086 Z" stroke-opacity="1" stroke-linecap="round" stroke-miterlimit="10" stroke-dasharray=""/></g><path fill="rgb(242,69,173)" stroke="rgb(0,0,0)" paint-order="fill stroke markers" d=" M 173.27005749302091 473.3777496268175 C 173.27005749302091 466.30275276000077 179.0054756691305 460.56733458389124 186.0804725359472 460.56733458389124 C 193.15546940276388 460.56733458389124 198.89088757887345 466.30275276000077 198.89088757887345 473.3777496268175 C 198.89088757887345 480.4527464936342 193.15546940276388 486.1881646697438 186.0804725359472 486.1881646697438 C 179.0054756691305 486.1881646697438 173.27005749302091 480.4527464936342 173.27005749302091 473.3777496268175" fill-opacity="1" stroke-opacity="1" stroke-linecap="round" stroke-miterlimit="10" stroke-width="0.8" stroke-dasharray=""/><path fill="rgb(218,74,49)" stroke="rgb(0,0,0)" paint-order="fill stroke markers" d=" M 318.0897213756858 471.5750553630708 C 318.0897213756858 467.03370579276117 321.77121259892374 463.35221456952326 326.3125621692334 463.35221456952326 C 330.85391173954304 463.35221456952326 334.5354029627809 467.03370579276117 334.5354029627809 471.5750553630708 C 334.5354029627809 476.11640493338047 330.85391173954304 479.7978961566183 326.3125621692334 479.7978961566183 C 321.77121259892374 479.7978961566183 318.0897213756858 476.11640493338047 318.0897213756858 471.5750553630708" fill-opacity="1" stroke-opacity="1" stroke-linecap="round" stroke-miterlimit="10" stroke-width="0.8" stroke-dasharray=""/><path fill="rgb(175,60,233)" stroke="rgb(0,0,0)" paint-order="fill stroke markers" d=" M 258.5224745277152 280.1675304274888 C 258.5224745277152 276.17141135163445 261.76196910460334 272.9319167747463 265.7580881804577 272.9319167747463 C 269.7542072563121 272.9319167747463 272.9937018332002 276.17141135163445 272.9937018332002 280.1675304274888 C 272.9937018332002 284.1636495033432 269.7542072563121 287.4031440802313 265.7580881804577 287.4031440802313 C 261.76196910460334 287.4031440802313 258.5224745277152 284.1636495033432 258.5224745277152 280.1675304274888" fill-opacity="1" stroke-opacity="1" stroke-linecap="round" stroke-miterlimit="10" stroke-width="0.8" stroke-dasharray=""/><path fill="rgb(232,222,96)" stroke="rgb(0,0,0)" paint-order="fill stroke markers" d=" M 292.65701128239095 173.09205244888844 C 292.65701128239095 168.09347282549703 296.70916069904916 164.0413234088388 301.7077403224406 164.0413234088388 C 306.70631994583204 164.0413234088388 310.75846936249025 168.09347282549703 310.75846936249025 173.09205244888844 C 310.75846936249025 178.09063207227985 306.70631994583204 182.14278148893808 301.7077403224406 182.14278148893808 C 296.70916069904916 182.14278148893808 292.65701128239095 178.09063207227985 292.65701128239095 173.09205244888844" fill-opacity="1" stroke-opacity="1" stroke-linecap="round" stroke-miterlimit="10" stroke-width="0.8" stroke-dasharray=""/><path fill="rgb(251,169,16)" stroke="rgb(0,0,0)" paint-order="fill stroke markers" d=" M 200.08583244385662 401.7818622063709 C 200.08583244385662 394.4434379931554 206.03480067787595 388.49446975913605 213.37322489109147 388.49446975913605 C 220.71164910430699 388.49446975913605 226.66061733832632 394.4434379931554 226.66061733832632 401.7818622063709 C 226.66061733832632 409.12028641958636 220.71164910430699 415.06925465360575 213.37322489109147 415.06925465360575 C 206.03480067787595 415.06925465360575 200.08583244385662 409.12028641958636 200.08583244385662 401.7818622063709" fill-opacity="1" stroke-opacity="1" stroke-linecap="round" stroke-miterlimit="10" stroke-width="0.8" stroke-dasharray=""/><path fill="rgb(155,165,15)" stroke="rgb(0,0,0)" paint-order="fill stroke markers" d=" M 288.94099295080673 318.9685556366349 C 288.94099295080673 314.93640417854164 292.20969754487396 311.6676995844744 296.24184900296723 311.6676995844744 C 300.2740004610605 311.6676995844744 303.5427050551277 314.93640417854164 303.5427050551277 318.9685556366349 C 303.5427050551277 323.00070709472817 300.2740004610605 326.2694116887954 296.24184900296723 326.2694116887954 C 292.20969754487396 326.2694116887954 288.94099295080673 323.00070709472817 288.94099295080673 318.9685556366349" fill-opacity="1" stroke-opacity="1" stroke-linecap="round" stroke-miterlimit="10" stroke-width="0.8" stroke-dasharray=""/><path fill="rgb(218,213,97)" stroke="rgb(0,0,0)" paint-order="fill stroke markers" d=" M 213.49130561249956 276.98944471649065 C 213.49130561249956 270.0923516999752 219.08250422274565 264.5011530897291 225.9795972392611 264.5011530897291 C 232.87669025577654 264.5011530897291 238.46788886602263 270.0923516999752 238.46788886602263 276.98944471649065 C 238.46788886602263 283.8865377330061 232.87669025577654 289.47773634325216 225.9795972392611 289.47773634325216 C 219.08250422274565 289.47773634325216 213.49130561249956 283.8865377330061 213.49130561249956 276.98944471649065" fill-opacity="1" stroke-opacity="1" stroke-linecap="round" stroke-miterlimit="10" stroke-width="0.8" stroke-dasharray=""/><path fill="rgb(196,83,219)" stroke="rgb(0,0,0)" paint-order="fill stroke markers" d=" M 419.7665115892081 468.80401863020484 C 419.7665115892081 463.2672508037723 424.2549487470479 458.77881364593253 429.7917165734804 458.77881364593253 C 435.32848439991295 458.77881364593253 439.8169215577527 463.2672508037723 439.8169215577527 468.80401863020484 C 439.8169215577527 474.3407864566374 435.32848439991295 478.8292236144772 429.7917165734804 478.8292236144772 C 424.2549487470479 478.8292236144772 419.7665115892081 474.3407864566374 419.7665115892081 468.80401863020484" fill-opacity="1" stroke-opacity="1" stroke-linecap="round" stroke-miterlimit="10" stroke-width="0.8" stroke-dasharray=""/><path fill="rgb(233,45,178)" stroke="rgb(0,0,0)" paint-order="fill stroke markers" d=" M 253.2581305615559 254.8912494392982 C 253.2581305615559 249.72828091253825 257.44354351487414 245.54286795922 262.6065120416341 245.54286795922 C 267.7694805683941 245.54286795922 271.95489352171234 249.72828091253825 271.95489352171234 254.8912494392982 C 271.95489352171234 260.05421796605816 267.7694805683941 264.23963091937645 262.6065120416341 264.23963091937645 C 257.44354351487414 264.23963091937645 253.2581305615559 260.05421796605816 253.2581305615559 254.8912494392982" fill-opacity="1" stroke-opacity="1" stroke-linecap="round" stroke-miterlimit="10" stroke-width="0.8" stroke-dasharray=""/></g></svg>